<svg xmlns="http://www.w3.org/2000/svg" width="240" height="240" viewBox="0 0 240 240">
  <!-- Полупрозрачный узор-doodle для обоев чата (строительная тематика).
       Нейтральный серый со слабой непрозрачностью — виден и на светлых,
       и на тёмных обоях. -->
  <g fill="none" stroke="#8a8f98" stroke-opacity="0.14" stroke-width="1.6" stroke-linecap="round" stroke-linejoin="round">
    <!-- домик -->
    <path d="M20 50 L34 36 L48 50 M25 48 v14 h18 v-14"/>
    <!-- шестерёнка -->
    <circle cx="120" cy="32" r="8"/>
    <path d="M120 20 v-4 M120 44 v4 M108 32 h-4 M132 32 h4 M111 23 l-3 -3 M129 41 l3 3 M129 23 l3 -3 M111 41 l-3 3"/>
    <!-- молоток -->
    <path d="M196 30 l14 14 M203 23 l10 10 l-6 6 l-10 -10 z"/>
    <!-- кирпичная кладка -->
    <path d="M28 116 h36 v20 h-36 z M28 126 h36 M46 116 v10 M37 126 v10 M55 126 v10"/>
    <!-- гаечный ключ -->
    <path d="M118 106 a8 8 0 1 0 6 13 l18 18 l5 -5 l-18 -18 a8 8 0 0 0 -11 -8"/>
    <!-- каска -->
    <path d="M188 130 a16 16 0 0 1 32 0 z M192 124 a12 10 0 0 1 24 0"/>
    <!-- линейка со штрихами -->
    <path d="M30 198 l26 -26 M36 192 l3 3 M42 186 l3 3 M48 180 l3 3"/>
    <!-- валик для краски -->
    <path d="M108 192 h24 v8 h-24 z M132 196 h8 v-6 M120 200 v12"/>
    <!-- болт -->
    <circle cx="208" cy="200" r="7"/>
    <path d="M204 196 l8 8 M204 204 l8 -8"/>
    <!-- звёздочка -->
    <path d="M70 78 l2 5 5 1 -4 4 1 5 -4 -3 -5 3 1 -5 -4 -4 5 -1 z"/>
    <!-- облачко -->
    <path d="M152 74 a6 6 0 0 1 6 -6 a7 7 0 0 1 13 2 a5 5 0 0 1 -1 10 h-13 a5 5 0 0 1 -5 -6"/>
  </g>
</svg>
